<?xml version="1.0" standalone="no"?>
<!DOCTYPE svg PUBLIC "-//W3C//DTD SVG 20010904//EN"
 "http://www.w3.org/TR/2001/REC-SVG-20010904/DTD/svg10.dtd">
<svg version="1.0" xmlns="http://www.w3.org/2000/svg"
 width="98.000000pt" height="93.000000pt" viewBox="0 0 98.000000 93.000000"
 preserveAspectRatio="xMidYMid meet">

<g transform="translate(0.000000,93.000000) scale(0.100000,-0.100000)"
fill="#000000" stroke="none">
<path d="M351 914 c-243 -65 -391 -303 -340 -546 19 -89 58 -158 128 -229 146
-145 343 -179 529 -92 57 27 159 115 181 157 8 14 22 28 32 31 9 3 36 19 59
36 29 21 39 34 32 41 -7 7 -20 4 -40 -11 -17 -11 -32 -21 -35 -21 -3 0 2 19
10 43 35 100 26 240 -24 345 -53 112 -179 214 -307 248 -65 17 -156 17 -225
-2z m222 -19 c83 -22 133 -50 199 -113 126 -120 170 -306 111 -467 -24 -67
-66 -88 -183 -93 -72 -4 -97 0 -164 22 -43 15 -81 24 -84 22 -10 -11 19 -32
70 -51 58 -22 213 -28 277 -11 l35 8 -28 -33 c-43 -51 -119 -105 -184 -130
-81 -32 -233 -32 -314 0 -305 120 -384 510 -150 733 32 31 77 65 100 77 97 50
213 63 315 36z"/>
<path d="M589 583 c-21 -55 4 -154 32 -126 27 27 18 153 -11 153 -6 0 -15 -12
-21 -27z"/>
<path d="M759 583 c-21 -55 4 -154 32 -126 27 27 18 153 -11 153 -6 0 -15 -12
-21 -27z"/>
</g>
</svg>
